# xmcd
#
# Track frame offsets:
#	150
#	18282
#	32557
#	48260
#	60610
#	75000
#	87340
#	100445
#	112090
#	125955
#	135390
#	147220
#	158785
#
# Disc length: 2305 seconds
#
# Revision: 0
# Processed by: cddbd v1.5.2PL0 Copyright (c) Steve Scherf et al.
# Submitted via: dBpowerAMP V4.0
#
DISCID=a408ff0d
DTITLE=Vangie Coker - The Best of Vangie Coker
DYEAR=1995
DGENRE=Country
TTITLE0=Blue eyes don't make an angel
TTITLE1=Single of the year
TTITLE2=Barbara's daughter
TTITLE3=We will make love
TTITLE4=The end of the world
TTITLE5=Green eyes
TTITLE6=I feel love coming on
TTITLE7=Happpy birthday dear heartache
TTITLE8=Dreaming my dreams with you
TTITLE9=Everybody's reaching out for someone
TTITLE10=Do me with love
TTITLE11=Who were you thinking of
TTITLE12=Jackson (duet with Archie Coker)
EXTD=
EXTT0=
EXTT1=
EXTT2=
EXTT3=
EXTT4=
EXTT5=
EXTT6=
EXTT7=
EXTT8=
EXTT9=
EXTT10=
EXTT11=
EXTT12=
PLAYORDER=
